Coordinates
nRows=128
nColumns=2
inDegrees=yes
endheader
time	ankle_angle_r	
2.125	 -5.265372	
2.1875	 -5.294800	
2.25	 -5.232311	
2.3125	 -5.249023	
2.375	 -5.262465	
2.4375	 -5.247025	
2.5	 -5.253383	
2.5625	 -5.281902	
2.625	 -5.266825	
2.6875	 -5.292075	
2.75	 -5.279541	
2.8125	 -5.230677	
2.875	 -5.291530	
2.9375	 -5.264282	
3	 -5.275908	
3.0625	 -5.294800	
3.125	 -5.290803	
3.1875	 -5.260104	
3.25	 -5.281721	
3.3125	 -5.218506	
3.375	 -5.233765	
3.4375	 -5.254473	
3.5	 -5.076090	
3.5625	 -5.254292	
3.625	 -5.187988	
3.6875	 -5.182357	
3.75	 -5.209060	
3.8125	 -5.227770	
3.875	 -5.142212	
3.9375	 -5.205790	
4	 -5.194528	
4.0625	 -5.177634	
4.125	 -5.133856	
4.1875	 -5.211421	
4.25	 -5.217779	
4.3125	 -5.180541	
4.375	 -5.187988	
4.4375	 -5.225954	
4.5	 -5.157471	
4.5625	 -5.157471	
4.625	 -5.179632	
4.6875	 -5.111694	
4.75	 -5.196708	
4.8125	 -5.221049	
4.875	 -5.126953	
4.9375	 -5.197253	
5	 -5.142212	
5.0625	 -5.069914	
5.125	 -5.116054	
5.1875	 -5.142212	
5.25	 -5.065918	
5.3125	 -5.111694	
5.375	 -5.071731	
5.4375	 -5.067553	
5.5	 -5.061558	
5.5625	 -5.076999	
5.625	 -5.069914	
5.6875	 -5.077362	
5.75	 -5.050659	
5.8125	 -5.169278	
5.875	 -5.252293	
5.9375	 -5.212330	
6	 -5.193801	
6.0625	 -5.236489	
6.125	 -5.218506	
6.1875	 -5.218506	
6.25	 -5.174909	
6.3125	 -5.294800	
6.375	 -5.250840	
6.4375	 -5.233765	
6.5	 -5.249023	
6.5625	 -5.207062	
6.625	 -5.232675	
6.6875	 -5.264282	
6.75	 -5.204700	
6.8125	 -5.218506	
6.875	 -5.188715	
6.9375	 -5.111694	
7	 -5.081177	
7.0625	 -5.081358	
7.125	 -5.096072	
7.1875	 -5.065918	
7.25	 -5.158197	
7.3125	 -5.144029	
7.375	 -5.140032	
7.4375	 -5.129496	
7.5	 -5.142212	
7.5625	 -5.140577	
7.625	 -5.109878	
7.6875	 -5.132947	
7.75	 -5.157471	
7.8125	 -5.114056	
7.875	 -5.144755	
7.9375	 -5.126953	
8	 -5.077544	
8.0625	 -5.206335	
8.125	 -5.175999	
8.1875	 -5.187988	
8.25	 -5.279541	
8.3125	 -5.256653	
8.375	 -5.283537	
8.4375	 -5.301702	
8.5	 -5.244664	
8.5625	 -5.258106	
8.625	 -5.264282	
8.6875	 -5.233765	
8.75	 -5.299886	
8.8125	 -5.264282	
8.875	 -5.275181	
8.9375	 -5.294800	
9	 -5.138579	
9.0625	 -5.209241	
9.125	 -5.203247	
9.1875	 -5.177816	
9.25	 -5.164010	
9.3125	 -5.198342	
9.375	 -5.174183	
9.4375	 -5.125863	
9.5	 -5.120414	
9.5625	 -5.058107	
9.625	 -5.195618	
9.6875	 -5.249023	
9.75	 -5.273002	
9.8125	 -5.285535	
9.875	 -5.272638	
9.9375	 -5.294800	
10	 -5.286080	
10.0625	 -5.240122	
